<mxfile host="app.diagrams.net" modified="2024-04-09T09:10:16.449Z" agent="Mozilla/5.0 (Windows NT 10.0; Win64; x64) AppleWebKit/537.36 (KHTML, like Gecko) Chrome/102.0.0.0 Safari/537.36" etag="C_cFJEsG10ubWR1twkS4" version="24.2.3" type="github">
  <diagram id="C5RBs43oDa-KdzZeNtuy" name="Page-1">
    <mxGraphModel dx="1434" dy="796" grid="1" gridSize="10" guides="1" tooltips="1" connect="1" arrows="1" fold="1" page="1" pageScale="1" pageWidth="827" pageHeight="1169" math="0" shadow="0">
      <root>
        <mxCell id="WIyWlLk6GJQsqaUBKTNV-0" />
        <mxCell id="WIyWlLk6GJQsqaUBKTNV-1" parent="WIyWlLk6GJQsqaUBKTNV-0" />
        <mxCell id="4X7qDC7bWwn_3lRSi59M-5" value="" style="edgeStyle=orthogonalEdgeStyle;rounded=0;orthogonalLoop=1;jettySize=auto;html=1;entryX=0;entryY=0.5;entryDx=0;entryDy=0;" edge="1" parent="WIyWlLk6GJQsqaUBKTNV-1" source="4X7qDC7bWwn_3lRSi59M-1" target="4X7qDC7bWwn_3lRSi59M-8">
          <mxGeometry relative="1" as="geometry">
            <mxPoint x="200" y="90" as="targetPoint" />
          </mxGeometry>
        </mxCell>
        <mxCell id="4X7qDC7bWwn_3lRSi59M-29" value="" style="edgeStyle=orthogonalEdgeStyle;rounded=0;orthogonalLoop=1;jettySize=auto;html=1;" edge="1" parent="WIyWlLk6GJQsqaUBKTNV-1" source="4X7qDC7bWwn_3lRSi59M-1" target="4X7qDC7bWwn_3lRSi59M-8">
          <mxGeometry relative="1" as="geometry" />
        </mxCell>
        <mxCell id="4X7qDC7bWwn_3lRSi59M-30" value="" style="edgeStyle=orthogonalEdgeStyle;rounded=0;orthogonalLoop=1;jettySize=auto;html=1;" edge="1" parent="WIyWlLk6GJQsqaUBKTNV-1" source="4X7qDC7bWwn_3lRSi59M-1" target="4X7qDC7bWwn_3lRSi59M-8">
          <mxGeometry relative="1" as="geometry" />
        </mxCell>
        <mxCell id="4X7qDC7bWwn_3lRSi59M-32" style="edgeStyle=orthogonalEdgeStyle;rounded=0;orthogonalLoop=1;jettySize=auto;html=1;entryX=0;entryY=0.5;entryDx=0;entryDy=0;" edge="1" parent="WIyWlLk6GJQsqaUBKTNV-1" source="4X7qDC7bWwn_3lRSi59M-1" target="4X7qDC7bWwn_3lRSi59M-31">
          <mxGeometry relative="1" as="geometry" />
        </mxCell>
        <mxCell id="4X7qDC7bWwn_3lRSi59M-1" value="Social admin" style="shape=umlActor;verticalLabelPosition=bottom;verticalAlign=top;html=1;outlineConnect=0;" vertex="1" parent="WIyWlLk6GJQsqaUBKTNV-1">
          <mxGeometry x="40" y="105" width="50" height="115" as="geometry" />
        </mxCell>
        <mxCell id="4X7qDC7bWwn_3lRSi59M-10" value="" style="edgeStyle=orthogonalEdgeStyle;rounded=0;orthogonalLoop=1;jettySize=auto;html=1;" edge="1" parent="WIyWlLk6GJQsqaUBKTNV-1" source="4X7qDC7bWwn_3lRSi59M-8" target="4X7qDC7bWwn_3lRSi59M-9">
          <mxGeometry relative="1" as="geometry" />
        </mxCell>
        <mxCell id="4X7qDC7bWwn_3lRSi59M-12" value="" style="edgeStyle=orthogonalEdgeStyle;rounded=0;orthogonalLoop=1;jettySize=auto;html=1;" edge="1" parent="WIyWlLk6GJQsqaUBKTNV-1" source="4X7qDC7bWwn_3lRSi59M-8" target="4X7qDC7bWwn_3lRSi59M-9">
          <mxGeometry relative="1" as="geometry" />
        </mxCell>
        <mxCell id="4X7qDC7bWwn_3lRSi59M-8" value="Create social message" style="rounded=0;whiteSpace=wrap;html=1;" vertex="1" parent="WIyWlLk6GJQsqaUBKTNV-1">
          <mxGeometry x="200" y="80" width="120" height="60" as="geometry" />
        </mxCell>
        <mxCell id="4X7qDC7bWwn_3lRSi59M-17" style="edgeStyle=orthogonalEdgeStyle;rounded=0;orthogonalLoop=1;jettySize=auto;html=1;" edge="1" parent="WIyWlLk6GJQsqaUBKTNV-1" source="4X7qDC7bWwn_3lRSi59M-9" target="4X7qDC7bWwn_3lRSi59M-14">
          <mxGeometry relative="1" as="geometry">
            <mxPoint x="660" y="110" as="targetPoint" />
          </mxGeometry>
        </mxCell>
        <mxCell id="4X7qDC7bWwn_3lRSi59M-9" value="Post&amp;nbsp;immediately" style="rounded=0;whiteSpace=wrap;html=1;" vertex="1" parent="WIyWlLk6GJQsqaUBKTNV-1">
          <mxGeometry x="370" y="20" width="120" height="60" as="geometry" />
        </mxCell>
        <mxCell id="4X7qDC7bWwn_3lRSi59M-18" style="edgeStyle=orthogonalEdgeStyle;rounded=0;orthogonalLoop=1;jettySize=auto;html=1;" edge="1" parent="WIyWlLk6GJQsqaUBKTNV-1" source="4X7qDC7bWwn_3lRSi59M-11" target="4X7qDC7bWwn_3lRSi59M-14">
          <mxGeometry relative="1" as="geometry">
            <mxPoint x="650" y="150" as="targetPoint" />
          </mxGeometry>
        </mxCell>
        <mxCell id="4X7qDC7bWwn_3lRSi59M-11" value="Schedule Post" style="rounded=0;whiteSpace=wrap;html=1;" vertex="1" parent="WIyWlLk6GJQsqaUBKTNV-1">
          <mxGeometry x="370" y="100" width="120" height="60" as="geometry" />
        </mxCell>
        <mxCell id="4X7qDC7bWwn_3lRSi59M-13" style="edgeStyle=orthogonalEdgeStyle;rounded=0;orthogonalLoop=1;jettySize=auto;html=1;entryX=0;entryY=0.633;entryDx=0;entryDy=0;entryPerimeter=0;" edge="1" parent="WIyWlLk6GJQsqaUBKTNV-1" source="4X7qDC7bWwn_3lRSi59M-8" target="4X7qDC7bWwn_3lRSi59M-11">
          <mxGeometry relative="1" as="geometry" />
        </mxCell>
        <mxCell id="4X7qDC7bWwn_3lRSi59M-21" value="" style="edgeStyle=orthogonalEdgeStyle;rounded=0;orthogonalLoop=1;jettySize=auto;html=1;exitX=0.75;exitY=0.1;exitDx=0;exitDy=0;exitPerimeter=0;" edge="1" parent="WIyWlLk6GJQsqaUBKTNV-1" source="4X7qDC7bWwn_3lRSi59M-14" target="4X7qDC7bWwn_3lRSi59M-20">
          <mxGeometry relative="1" as="geometry">
            <Array as="points">
              <mxPoint x="650" y="116" />
              <mxPoint x="650" y="70" />
            </Array>
          </mxGeometry>
        </mxCell>
        <mxCell id="4X7qDC7bWwn_3lRSi59M-23" value="" style="edgeStyle=orthogonalEdgeStyle;rounded=0;orthogonalLoop=1;jettySize=auto;html=1;" edge="1" parent="WIyWlLk6GJQsqaUBKTNV-1" target="4X7qDC7bWwn_3lRSi59M-22">
          <mxGeometry relative="1" as="geometry">
            <mxPoint x="650" y="160" as="sourcePoint" />
            <Array as="points" />
          </mxGeometry>
        </mxCell>
        <mxCell id="4X7qDC7bWwn_3lRSi59M-14" value="Partner" style="shape=umlActor;verticalLabelPosition=bottom;verticalAlign=top;html=1;outlineConnect=0;" vertex="1" parent="WIyWlLk6GJQsqaUBKTNV-1">
          <mxGeometry x="600" y="105" width="50" height="110" as="geometry" />
        </mxCell>
        <mxCell id="4X7qDC7bWwn_3lRSi59M-19" value="Linked In, Twitter" style="ellipse;whiteSpace=wrap;html=1;" vertex="1" parent="WIyWlLk6GJQsqaUBKTNV-1">
          <mxGeometry x="1010" y="80" width="120" height="80" as="geometry" />
        </mxCell>
        <mxCell id="4X7qDC7bWwn_3lRSi59M-24" value="" style="edgeStyle=orthogonalEdgeStyle;rounded=0;orthogonalLoop=1;jettySize=auto;html=1;" edge="1" parent="WIyWlLk6GJQsqaUBKTNV-1" source="4X7qDC7bWwn_3lRSi59M-20" target="4X7qDC7bWwn_3lRSi59M-19">
          <mxGeometry relative="1" as="geometry" />
        </mxCell>
        <mxCell id="4X7qDC7bWwn_3lRSi59M-20" value="Send&amp;nbsp;immediately" style="whiteSpace=wrap;html=1;verticalAlign=middle;align=center;" vertex="1" parent="WIyWlLk6GJQsqaUBKTNV-1">
          <mxGeometry x="810" y="30" width="120" height="60" as="geometry" />
        </mxCell>
        <mxCell id="4X7qDC7bWwn_3lRSi59M-25" value="" style="edgeStyle=orthogonalEdgeStyle;rounded=0;orthogonalLoop=1;jettySize=auto;html=1;" edge="1" parent="WIyWlLk6GJQsqaUBKTNV-1" source="4X7qDC7bWwn_3lRSi59M-22" target="4X7qDC7bWwn_3lRSi59M-19">
          <mxGeometry relative="1" as="geometry" />
        </mxCell>
        <mxCell id="4X7qDC7bWwn_3lRSi59M-22" value="Schedule&amp;nbsp;" style="whiteSpace=wrap;html=1;verticalAlign=middle;" vertex="1" parent="WIyWlLk6GJQsqaUBKTNV-1">
          <mxGeometry x="810" y="120" width="120" height="60" as="geometry" />
        </mxCell>
        <mxCell id="4X7qDC7bWwn_3lRSi59M-34" style="edgeStyle=orthogonalEdgeStyle;rounded=0;orthogonalLoop=1;jettySize=auto;html=1;" edge="1" parent="WIyWlLk6GJQsqaUBKTNV-1" source="4X7qDC7bWwn_3lRSi59M-31" target="4X7qDC7bWwn_3lRSi59M-14">
          <mxGeometry relative="1" as="geometry">
            <Array as="points">
              <mxPoint x="460" y="240" />
              <mxPoint x="460" y="200" />
            </Array>
          </mxGeometry>
        </mxCell>
        <mxCell id="4X7qDC7bWwn_3lRSi59M-37" value="delete&amp;nbsp;" style="edgeLabel;html=1;align=center;verticalAlign=middle;resizable=0;points=[];" vertex="1" connectable="0" parent="4X7qDC7bWwn_3lRSi59M-34">
          <mxGeometry x="-0.0812" y="-2" relative="1" as="geometry">
            <mxPoint as="offset" />
          </mxGeometry>
        </mxCell>
        <mxCell id="4X7qDC7bWwn_3lRSi59M-31" value="Delete social message" style="rounded=0;whiteSpace=wrap;html=1;" vertex="1" parent="WIyWlLk6GJQsqaUBKTNV-1">
          <mxGeometry x="200" y="210" width="120" height="60" as="geometry" />
        </mxCell>
      </root>
    </mxGraphModel>
  </diagram>
</mxfile>
